#!OML:ASF X:\für Bonn\!DataBase\2005_08_12_Daniel\c3d\Daniel.ASF
:FULLY-SPECIFIED
:DEGREES
139
root 1.577 17.4484 18.3771 180.989 -255.076 545.668
lowerback 4.82786 -5.51409 1.53904
upperback 0.893544 -7.34578 -5.30125
thorax -2.66794 -3.6938 -5.79631
lowerneck 10.2733 -11.508 -6.57602
upperneck 8.2524 -16.0193 5.19503
head 1.97579 -8.12585 2.89161
rclavicle 6.95249e-014 1.90833e-014
rhumerus 21.0343 -8.7827 -16.0724
rradius 33.786
rwrist 3.21939
rhand 17.1263 10.0063
rfingers 7.12502
rthumb 41.8492 -14.6341
lclavicle 6.95249e-014 1.90833e-014
lhumerus -59.9451 50.6196 36.772
lradius 19.3685
lwrist -42.4921
lhand -9.38983 -5.77466
lfingers 7.12502
lthumb 16.5712 23.5378
rfemur 2.18959 28.8232 24.138
rtibia 25.9511
rfoot -36.328 -28.6935
rtoes -6.86741
lfemur -2.56168 2.9927 -9.27332
ltibia 38.1279
lfoot -18.8533 13.32
ltoes -14.1126
140
root 1.57411 17.4491 18.3937 181.412 -255.409 546.051
lowerback 4.85086 -5.54319 1.48866
upperback 0.887107 -7.38691 -5.28016
thorax -2.68297 -3.7137 -5.73971
lowerneck 10.2808 -11.5488 -6.39741
upperneck 8.25838 -16.0479 5.05532
head 1.94854 -8.13457 2.81746
rclavicle 6.44062e-014 2.54444e-014
rhumerus 20.4069 -8.73372 -15.6929
rradius 34.7668
rwrist 2.74871
rhand 16.8224 9.71535
rfingers 7.12502
rthumb 41.5642 -15.019
lclavicle 6.44062e-014 2.54444e-014
lhumerus -59.2615 50.1966 37.9293
lradius 19.7263
lwrist -41.4045
lhand -9.3123 -5.77709
lfingers 7.12502
lthumb 16.6458 23.5291
rfemur 2.26918 29.0339 24.2586
rtibia 25.9602
rfoot -36.7967 -29.0944
rtoes -6.77882
lfemur -2.66541 3.03635 -9.32511
ltibia 38.0566
lfoot -18.8595 13.3775
ltoes -14.1541
141
root 1.57152 17.45 18.408 181.781 -255.752 546.369
lowerback 4.87036 -5.57917 1.4574
upperback 0.871878 -7.43678 -5.24837
thorax -2.70704 -3.73855 -5.68154
lowerneck 10.3012 -11.5931 -6.18289
upperneck 8.26197 -16.0754 4.86194
head 1.90974 -8.14185 2.72163
rclavicle -4.8901e-014 -2.22639e-014
rhumerus 19.7404 -8.53464 -15.1836
rradius 35.7924
rwrist 2.10407
rhand 16.5592 9.36587
rfingers 7.12502
rthumb 41.3172 -15.4488
lclavicle -4.8901e-014 -2.22639e-014
lhumerus -58.6531 49.8229 38.9879
lradius 20.0631
lwrist -40.4299
lhand -9.23657 -5.73018
lfingers 7.12502
lthumb 16.7187 23.5699
rfemur 2.34161 29.266 24.3926
rtibia 25.9635
rfoot -37.3043 -29.4848
rtoes -6.47568
lfemur -2.79449 3.05882 -9.36584
ltibia 37.9935
lfoot -18.8664 13.473
ltoes -14.1743
142
root 1.5684 17.4499 18.4215 182.093 -256.094 546.635
lowerback 4.90115 -5.60919 1.4259
upperback 0.865519 -7.4783 -5.21064
thorax -2.72629 -3.75889 -5.61722
lowerneck 10.3185 -11.6466 -5.96128
upperneck 8.25442 -16.1153 4.69027
head 1.87009 -8.15513 2.63222
rclavicle 3.21037e-014 -3.65764e-014
rhumerus 19.0816 -8.39129 -14.7155
rradius 36.7198
rwrist 1.59576
rhand 16.2692 9.11938
rfingers 7.12502
rthumb 41.0449 -15.7827
lclavicle 3.21037e-014 -3.65764e-014
lhumerus -58.0164 49.4576 40.0421
lradius 20.3754
lwrist -39.4888
lhand -9.21065 -5.71744
lfingers 7.12502
lthumb 16.7437 23.5805
rfemur 2.41539 29.443 24.5333
rtibia 25.9642
rfoot -37.7617 -29.8567
rtoes -6.307
lfemur -2.91751 3.11333 -9.37724
ltibia 37.9313
lfoot -18.852 13.5526
ltoes -14.2583
143
root 1.56505 17.4487 18.4333 182.399 -256.436 546.909
lowerback 4.95272 -5.64367 1.3949
upperback 0.850735 -7.52648 -5.18072
thorax -2.76767 -3.78299 -5.55816
lowerneck 10.3677 -11.6929 -5.76897
upperneck 8.24789 -16.1504 4.53966
head 1.82997 -8.16715 2.55696
rclavicle -2.3059e-014 -6.83819e-014
rhumerus 18.4545 -8.27079 -14.3007
rradius 37.5537
rwrist 1.22569
rhand 16.0366 8.96453
rfingers 7.12502
rthumb 40.8265 -16.0067
lclavicle -2.3059e-014 -6.83819e-014
lhumerus -57.4696 49.09 40.9816
lradius 20.6946
lwrist -38.632
lhand -9.13972 -5.70833
lfingers 7.12502
lthumb 16.8119 23.5838
rfemur 2.50223 29.6276 24.6771
rtibia 25.9614
rfoot -38.2389 -30.2203
rtoes -6.17099
lfemur -3.03467 3.14555 -9.39266
ltibia 37.8727
lfoot -18.8499 13.6331
ltoes -14.2613
144
root 1.56215 17.4485 18.4434 182.692 -256.79 547.161
lowerback 4.99445 -5.67527 1.36603
upperback 0.838495 -7.57034 -5.13717
thorax -2.79871 -3.80472 -5.48756
lowerneck 10.3668 -11.7588 -5.59293
upperneck 8.27456 -16.2108 4.36048
head 1.80946 -8.19172 2.47045
rclavicle 1.98039e-014 -4.77083e-015
rhumerus 17.8159 -8.19008 -13.8847
rradius 38.3694
rwrist 1.03043
rhand 15.8271 8.90272
rfingers 7.12502
rthumb 40.6296 -16.1302
lclavicle 1.98039e-014 -4.77083e-015
lhumerus -57.0011 48.8291 41.7922
lradius 20.9642
lwrist -37.9656
lhand -9.11524 -5.7514
lfingers 7.12502
lthumb 16.8355 23.5388
rfemur 2.5727 29.7567 24.806
rtibia 25.9633
rfoot -38.6684 -30.5503
rtoes -5.94315
lfemur -3.16378 3.1845 -9.40085
ltibia 37.8146
lfoot -18.8468 13.7096
ltoes -14.3177
